<svg data-v-fde0c5aa="" xmlns="http://www.w3.org/2000/svg" viewBox="0 0 300 300" class="iconAbove"><!----><defs data-v-fde0c5aa=""><!----></defs><rect data-v-fde0c5aa="" fill="#a970ff" x="0" y="0" width="300px" height="300px" class="logo-background-square"></rect><defs data-v-fde0c5aa=""><!----></defs><g data-v-fde0c5aa="" id="1e57742a-5515-4d26-a7f1-cbb8b5de64d0" fill="#301E41" transform="matrix(4.220094098754407,0,0,4.220094098754407,18.227560408092703,176.57669176032832)"><path d="M3.74 12.46L3.74 12.46Q2.83 12.46 2.07 12.12L2.07 12.12L2.07 12.12Q1.32 11.77 0.87 11.10L0.87 11.10L0.87 11.10Q0.42 10.43 0.42 9.48L0.42 9.48L0.43 9.17L2.30 9.17L2.28 9.39L2.28 9.39Q2.28 10.09 2.69 10.51L2.69 10.51L2.69 10.51Q3.09 10.92 3.82 10.92L3.82 10.92L3.82 10.92Q4.56 10.92 4.92 10.59L4.92 10.59L4.92 10.59Q5.28 10.26 5.28 9.79L5.28 9.79L5.28 9.79Q5.28 9.31 5.03 9.01L5.03 9.01L5.03 9.01Q4.77 8.71 4.40 8.54L4.40 8.54L4.40 8.54Q4.03 8.37 3.36 8.15L3.36 8.15L3.36 8.15Q2.48 7.87 1.93 7.59L1.93 7.59L1.93 7.59Q1.39 7.31 1.00 6.73L1.00 6.73L1.00 6.73Q0.62 6.16 0.62 5.21L0.62 5.21L0.62 5.21Q0.62 4.34 1.05 3.73L1.05 3.73L1.05 3.73Q1.48 3.12 2.21 2.82L2.21 2.82L2.21 2.82Q2.94 2.52 3.82 2.52L3.82 2.52L3.82 2.52Q5.19 2.52 6.07 3.23L6.07 3.23L6.07 3.23Q6.94 3.93 6.94 5.35L6.94 5.35L6.94 5.52L5.11 5.52L5.11 5.39L5.11 5.39Q5.11 4.77 4.76 4.42L4.76 4.42L4.76 4.42Q4.41 4.06 3.81 4.06L3.81 4.06L3.81 4.06Q3.18 4.06 2.82 4.35L2.82 4.35L2.82 4.35Q2.46 4.63 2.46 5.08L2.46 5.08L2.46 5.08Q2.46 5.47 2.70 5.73L2.70 5.73L2.70 5.73Q2.94 5.98 3.30 6.13L3.30 6.13L3.30 6.13Q3.65 6.29 4.28 6.48L4.28 6.48L4.28 6.48Q5.19 6.78 5.75 7.05L5.75 7.05L5.75 7.05Q6.31 7.32 6.72 7.90L6.72 7.90L6.72 7.90Q7.13 8.47 7.13 9.41L7.13 9.41L7.13 9.41Q7.13 10.99 6.22 11.72L6.22 11.72L6.22 11.72Q5.32 12.46 3.74 12.46L3.74 12.46ZM11.17 12.46L11.17 12.46Q9.69 12.46 8.96 11.52L8.96 11.52L8.96 11.52Q8.23 10.58 8.23 8.61L8.23 8.61L8.23 8.61Q8.23 6.64 8.96 5.70L8.96 5.70L8.96 5.70Q9.69 4.76 11.17 4.76L11.17 4.76L11.17 4.76Q12.66 4.76 13.38 5.70L13.38 5.70L13.38 5.70Q14.11 6.64 14.11 8.61L14.11 8.61L14.11 8.61Q14.11 10.58 13.38 11.52L13.38 11.52L13.38 11.52Q12.66 12.46 11.17 12.46L11.17 12.46ZM11.17 11.05L11.17 11.05Q11.80 11.05 12.08 10.51L12.08 10.51L12.08 10.51Q12.36 9.97 12.36 8.88L12.36 8.88L12.36 8.34L12.36 8.34Q12.36 7.25 12.08 6.71L12.08 6.71L12.08 6.71Q11.80 6.17 11.17 6.17L11.17 6.17L11.17 6.17Q10.54 6.17 10.26 6.71L10.26 6.71L10.26 6.71Q9.98 7.25 9.98 8.34L9.98 8.34L9.98 8.88L9.98 8.88Q9.98 9.97 10.26 10.51L10.26 10.51L10.26 10.51Q10.54 11.05 11.17 11.05L11.17 11.05ZM18.03 12.46L18.03 12.46Q16.59 12.46 15.92 11.53L15.92 11.53L15.92 11.53Q15.25 10.60 15.25 8.61L15.25 8.61L15.25 8.61Q15.25 6.64 15.93 5.70L15.93 5.70L15.93 5.70Q16.60 4.76 17.98 4.76L17.98 4.76L17.98 4.76Q19.19 4.76 19.87 5.48L19.87 5.48L19.87 5.48Q20.55 6.20 20.55 7.70L20.55 7.70L18.83 7.70L18.83 7.70Q18.83 6.17 17.98 6.17L17.98 6.17L17.98 6.17Q17.46 6.17 17.23 6.71L17.23 6.71L17.23 6.71Q17.00 7.25 17.00 8.34L17.00 8.34L17.00 8.88L17.00 8.88Q17.00 9.97 17.24 10.51L17.24 10.51L17.24 10.51Q17.49 11.05 18.03 11.05L18.03 11.05L18.03 11.05Q18.48 11.05 18.68 10.67L18.68 10.67L18.68 10.67Q18.89 10.29 18.89 9.52L18.89 9.52L20.55 9.52L20.55 9.52Q20.55 11.02 19.89 11.74L19.89 11.74L19.89 11.74Q19.24 12.46 18.03 12.46L18.03 12.46ZM21.81 3.70L21.81 2.17L23.49 2.17L23.49 3.70L21.81 3.70ZM21.81 12.29L21.81 4.93L23.49 4.93L23.49 12.29L21.81 12.29ZM26.29 12.46L26.29 12.46Q25.61 12.46 25.03 11.99L25.03 11.99L25.03 11.99Q24.44 11.52 24.44 10.39L24.44 10.39L24.44 10.39Q24.44 8.99 25.40 8.40L25.40 8.40L25.40 8.40Q26.35 7.81 28.10 7.81L28.10 7.81L28.10 7.04L28.10 7.04Q28.10 6.61 27.94 6.37L27.94 6.37L27.94 6.37Q27.78 6.13 27.33 6.13L27.33 6.13L27.33 6.13Q26.87 6.13 26.66 6.36L26.66 6.36L26.66 6.36Q26.45 6.59 26.45 6.90L26.45 6.90L26.45 7.11L24.81 7.11L24.81 7.11Q24.79 7.03 24.79 6.80L24.79 6.80L24.79 6.80Q24.79 5.88 25.47 5.32L25.47 5.32L25.47 5.32Q26.15 4.76 27.29 4.76L27.29 4.76L27.29 4.76Q28.55 4.76 29.17 5.32L29.17 5.32L29.17 5.32Q29.79 5.88 29.79 6.93L29.79 6.93L29.79 10.56L29.79 10.56Q29.79 10.81 29.90 10.93L29.90 10.93L29.90 10.93Q30.02 11.05 30.18 11.05L30.18 11.05L30.52 11.05L30.52 12.24L30.52 12.24Q30.10 12.46 29.53 12.46L29.53 12.46L29.53 12.46Q29.04 12.46 28.69 12.20L28.69 12.20L28.69 12.20Q28.35 11.94 28.22 11.49L28.22 11.49L28.15 11.49L28.15 11.49Q27.80 11.98 27.39 12.22L27.39 12.22L27.39 12.22Q26.98 12.46 26.29 12.46L26.29 12.46ZM26.99 11.06L26.99 11.06Q27.55 11.06 27.83 10.61L27.83 10.61L27.83 10.61Q28.10 10.16 28.10 9.45L28.10 9.45L28.10 9.03L28.10 9.03Q27.24 9.03 26.71 9.30L26.71 9.30L26.71 9.30Q26.17 9.58 26.17 10.23L26.17 10.23L26.17 10.23Q26.17 10.63 26.37 10.84L26.37 10.84L26.37 10.84Q26.57 11.06 26.99 11.06L26.99 11.06ZM31.39 12.29L31.39 2.17L33.07 2.17L33.07 12.29L31.39 12.29ZM38.05 8.61L38.05 7.07L42.04 7.07L42.04 12.29L40.88 12.29L40.57 11.23L40.57 11.23Q40.11 11.83 39.45 12.14L39.45 12.14L39.45 12.14Q38.78 12.46 38.01 12.46L38.01 12.46L38.01 12.46Q36.20 12.46 35.25 11.23L35.25 11.23L35.25 11.23Q34.30 10.01 34.30 7.49L34.30 7.49L34.30 7.49Q34.30 4.98 35.35 3.75L35.35 3.75L35.35 3.75Q36.40 2.52 38.37 2.52L38.37 2.52L38.37 2.52Q39.37 2.52 40.20 2.93L40.20 2.93L40.20 2.93Q41.03 3.35 41.54 4.14L41.54 4.14L41.54 4.14Q42.04 4.94 42.04 6.05L42.04 6.05L40.21 6.05L40.21 6.05Q40.21 5.11 39.67 4.58L39.67 4.58L39.67 4.58Q39.13 4.06 38.32 4.06L38.32 4.06L38.32 4.06Q37.23 4.06 36.69 4.86L36.69 4.86L36.69 4.86Q36.15 5.66 36.15 7.14L36.15 7.14L36.15 7.84L36.15 7.84Q36.15 9.34 36.69 10.13L36.69 10.13L36.69 10.13Q37.23 10.92 38.33 10.92L38.33 10.92L38.33 10.92Q39.16 10.92 39.68 10.28L39.68 10.28L39.68 10.28Q40.21 9.65 40.21 8.61L40.21 8.61L38.05 8.61ZM45.49 12.46L45.49 12.46Q44.58 12.46 44.05 11.89L44.05 11.89L44.05 11.89Q43.53 11.33 43.53 10.09L43.53 10.09L43.53 4.93L45.21 4.93L45.21 9.63L45.21 9.63Q45.21 10.33 45.44 10.63L45.44 10.63L45.44 10.63Q45.68 10.93 46.17 10.93L46.17 10.93L46.17 10.93Q46.66 10.93 46.99 10.52L46.99 10.52L46.99 10.52Q47.32 10.11 47.32 9.49L47.32 9.49L47.32 4.93L49 4.93L49 12.29L47.60 12.29L47.43 11.38L47.35 11.38L47.35 11.38Q47.03 11.86 46.56 12.16L46.56 12.16L46.56 12.16Q46.10 12.46 45.49 12.46L45.49 12.46ZM51.48 14.84L51.48 14.84Q51.04 14.84 50.72 14.79L50.72 14.79L50.72 14.79Q50.39 14.74 50.39 14.71L50.39 14.71L50.39 13.43L51.14 13.43L51.14 13.43Q51.52 13.43 51.83 13.15L51.83 13.15L51.83 13.15Q52.14 12.87 52.28 12.29L52.28 12.29L49.83 4.93L51.60 4.93L52.71 8.39L52.71 8.39Q52.82 8.74 52.95 9.41L52.95 9.41L52.95 9.41Q53.07 10.08 53.10 10.30L53.10 10.30L53.16 10.30L53.16 10.30Q53.19 10.09 53.30 9.44L53.30 9.44L53.30 9.44Q53.41 8.79 53.51 8.40L53.51 8.40L54.42 4.93L56.10 4.93L54.08 11.91L54.08 11.91Q53.69 13.27 53.07 14.06L53.07 14.06L53.07 14.06Q52.46 14.84 51.48 14.84L51.48 14.84ZM59.29 12.46L59.29 12.46Q58.03 12.46 57.32 11.82L57.32 11.82L57.32 11.82Q56.62 11.19 56.62 10.12L56.62 10.12L56.63 9.95L58.34 9.95L58.34 10.05L58.34 10.05Q58.35 10.60 58.65 10.84L58.65 10.84L58.65 10.84Q58.94 11.09 59.35 11.09L59.35 11.09L59.35 11.09Q59.74 11.09 60.03 10.90L60.03 10.90L60.03 10.90Q60.33 10.71 60.33 10.29L60.33 10.29L60.33 10.29Q60.33 9.84 59.99 9.64L59.99 9.64L59.99 9.64Q59.65 9.44 58.93 9.24L58.93 9.24L58.93 9.24Q58.23 9.04 57.79 8.85L57.79 8.85L57.79 8.85Q57.36 8.65 57.04 8.20L57.04 8.20L57.04 8.20Q56.73 7.76 56.73 7L56.73 7L56.73 7Q56.73 5.92 57.46 5.34L57.46 5.34L57.46 5.34Q58.20 4.76 59.36 4.76L59.36 4.76L59.36 4.76Q60.44 4.76 61.15 5.30L61.15 5.30L61.15 5.30Q61.85 5.84 61.85 6.76L61.85 6.76L61.84 7.08L60.13 7.08L60.13 7.06L60.13 7.06Q60.12 6.13 59.30 6.13L59.30 6.13L59.30 6.13Q58.91 6.13 58.67 6.33L58.67 6.33L58.67 6.33Q58.44 6.52 58.44 6.86L58.44 6.86L58.44 6.86Q58.44 7.25 58.76 7.43L58.76 7.43L58.76 7.43Q59.08 7.60 59.77 7.78L59.77 7.78L59.77 7.78Q60.48 7.97 60.93 8.17L60.93 8.17L60.93 8.17Q61.38 8.37 61.71 8.83L61.71 8.83L61.71 8.83Q62.03 9.28 62.03 10.08L62.03 10.08L62.03 10.08Q62.03 12.46 59.29 12.46L59.29 12.46Z"></path></g><defs data-v-fde0c5aa=""><!----></defs><g data-v-fde0c5aa="" id="b13c066a-2ba8-48f1-9227-f6f5b08ece30" stroke="none" fill="#301E41" transform="matrix(1.2636745374041214,0,0,1.2636745374041214,86.95148614621849,51.08198167373675)"><path d="M84.524 38.454v-7.692H53.739V23.08h-7.69v7.682H15.263v7.692H7.581V76.92h7.682V46.155h7.71v-7.701h53.84v7.701h7.71V76.92h7.682V38.454h-7.681zM15.263 76.92v7.71h7.71v7.682h7.682V84.63h38.477v7.682h7.682V84.63h7.71v-7.71H15.263zM69.132 7.688H61.44v7.682h7.692V7.688zM61.44 15.37h-7.701v7.71h7.701v-7.71zm-23.093 0v7.71h7.701v-7.71h-7.701zm-7.692-7.682v7.682h7.692V7.688h-7.692z"></path></g><!----></svg>